<svg xmlns="http://www.w3.org/2000/svg" viewBox="0 0 1600 600" width="1600" height="600" role="img" aria-label="YES experiences PORTUGAL">
  <title>YES experiences PORTUGAL</title>
  <path transform="translate(180.000 320.000) scale(0.280000 -0.280000)" d="M470.0 345Q545.0 427 604.5 519.0Q664.0 611 715.0 726Q741.0 723 765.0 712.0Q789.0 701 803.0 687Q748.0 621 703.5 567.0Q659.0 513 622.0 465.5Q585.0 418 553.5 374.5Q522.0 331 492.0 287Q477.0 236 464.0 184.0Q451.0 132 441.0 84.5Q431.0 37 425.5 -3.5Q420.0 -44 420.0 -73Q409.0 -73 385.0 -68.5Q361.0 -64 336.0 -58.0Q311.0 -52 290.5 -46.0Q270.0 -40 266.0 -36Q282.0 -9 297.5 30.5Q313.0 70 328.0 113.5Q343.0 157 357.0 201.5Q371.0 246 383.0 284Q358.0 362 334.5 430.5Q311.0 499 289.0 554.5Q267.0 610 247.0 650.0Q227.0 690 209.0 711Q219.0 715 239.5 719.0Q260.0 723 284.5 727.0Q309.0 731 334.5 733.5Q360.0 736 380.0 737Q380.0 712 384.5 676.0Q389.0 640 396.5 599.0Q404.0 558 414.0 516.0Q424.0 474 434.0 439.0Q444.0 404 453.5 378.5Q463.0 353 470.0 345ZM1127.0 426Q1160.0 426 1178.5 408.0Q1197.0 390 1197.0 358Q1197.0 350 1195.5 341.5Q1194.0 333 1192.0 327Q1179.0 329 1163.0 330.5Q1147.0 332 1125.0 332Q1082.0 332 1038.0 324.5Q994.0 317 954.0 312Q931.0 259 912.0 209.5Q893.0 160 879.5 119.0Q866.0 78 858.5 48.0Q851.0 18 850.0 3Q931.0 20 1013.5 32.0Q1096.0 44 1187.0 50Q1198.0 33 1205.5 13.0Q1213.0 -7 1213.0 -30Q1213.0 -36 1213.0 -43.0Q1213.0 -50 1211.0 -57Q1183.0 -56 1152.0 -55.5Q1121.0 -55 1071.0 -55Q1038.0 -55 1008.5 -56.5Q979.0 -58 949.0 -61.0Q919.0 -64 885.5 -69.0Q852.0 -74 810.0 -81Q764.0 -63 721.0 7Q738.0 43 768.5 116.5Q799.0 190 846.0 313Q801.0 327 787.0 363Q792.0 368 816.0 375.5Q840.0 383 875.0 391Q890.0 430 900.5 459.0Q911.0 488 919.0 513.5Q927.0 539 933.5 563.5Q940.0 588 946.0 617Q911.0 619 891.0 636.5Q871.0 654 871.0 682Q871.0 690 873.5 701.0Q876.0 712 879.0 720Q899.0 717 917.5 716.0Q936.0 715 966.0 715Q1029.0 715 1084.0 718.5Q1139.0 722 1183.5 726.0Q1228.0 730 1260.0 733.5Q1292.0 737 1309.0 737Q1332.0 737 1350.0 713.0Q1368.0 689 1377.0 645Q1346.0 648 1326.5 649.0Q1307.0 650 1292.0 650Q1237.0 650 1191.5 644.5Q1146.0 639 1104.0 633Q1098.0 624 1090.5 610.0Q1083.0 596 1071.0 571.0Q1059.0 546 1041.5 508.0Q1024.0 470 999.0 413Q1037.0 419 1070.5 422.5Q1104.0 426 1127.0 426ZM1975.0 674Q1978.0 657 1979.5 650.5Q1981.0 644 1981.0 633Q1981.0 600 1966.5 571.5Q1952.0 543 1927.0 531Q1907.0 558 1878.0 577.5Q1849.0 597 1814.5 609.5Q1780.0 622 1743.0 628.0Q1706.0 634 1671.0 634Q1636.0 634 1605.5 628.5Q1575.0 623 1551.5 613.5Q1528.0 604 1514.5 590.0Q1501.0 576 1501.0 558Q1504.0 536 1528.0 513.5Q1552.0 491 1587.0 469.5Q1622.0 448 1664.5 427.0Q1707.0 406 1748.0 387Q1799.0 363 1836.0 342.5Q1873.0 322 1897.0 297.5Q1921.0 273 1933.0 242.0Q1945.0 211 1945.0 167Q1945.0 116 1928.0 71.5Q1911.0 27 1878.5 -6.0Q1846.0 -39 1800.0 -57.5Q1754.0 -76 1697.0 -76Q1641.0 -76 1576.0 -59.0Q1511.0 -42 1454.5 -12.5Q1398.0 17 1360.5 55.5Q1323.0 94 1323.0 137Q1323.0 157 1334.5 188.0Q1346.0 219 1376.0 253Q1379.0 223 1408.5 182.0Q1438.0 141 1497.0 106Q1552.0 74 1610.5 59.5Q1669.0 45 1720.0 45Q1776.0 45 1811.0 59.0Q1846.0 73 1866.0 92.5Q1886.0 112 1894.0 132.0Q1902.0 152 1903.0 164Q1902.0 184 1884.5 202.5Q1867.0 221 1837.5 238.5Q1808.0 256 1769.0 274.0Q1730.0 292 1688.0 310Q1625.0 338 1579.5 362.5Q1534.0 387 1504.5 412.5Q1475.0 438 1461.5 466.0Q1448.0 494 1448.0 530Q1448.0 586 1482.0 636.0Q1516.0 686 1580.0 712Q1612.0 726 1648.5 732.0Q1685.0 738 1720.0 738Q1786.0 738 1849.0 720.0Q1912.0 702 1975.0 674Z" fill="#FAF8F3"/>
  <path transform="translate(180.000 460.000) scale(0.120000 -0.120000)" d="M155.0 -12Q102.0 -12 71.5 16.0Q41.0 44 31.5 89.0Q22.0 134 32.0 185Q38.0 222 58.5 260.5Q79.0 299 110.0 330.0Q141.0 361 179.0 380.0Q217.0 399 260.0 399Q297.0 399 314.5 384.5Q332.0 370 328.0 345Q323.0 321 300.0 299.0Q277.0 277 241.0 259.5Q205.0 242 161.0 229Q127.0 219 92.0 214Q82.0 160 91.0 118Q99.0 74 125.0 48.0Q151.0 22 193.0 22Q217.0 22 243.0 29.0Q269.0 36 294.0 55Q297.0 57 300.5 53.0Q304.0 49 301.0 46Q263.0 15 227.0 1.5Q191.0 -12 155.0 -12ZM95.0 228Q156.0 239 200.0 260Q252.0 284 261.0 324Q268.0 351 252.0 361.5Q236.0 372 216.0 372Q182.0 372 157.0 351.0Q132.0 330 116.0 295Q102.0 264 95.0 228ZM627.0 -9Q608.0 -9 593.0 2.5Q578.0 14 567.0 53L535.0 162L473.0 63Q454.0 33 441.5 17.5Q429.0 2 418.0 -3.5Q407.0 -9 392.0 -9Q372.0 -9 356.0 5.5Q340.0 20 342.0 40Q344.0 51 351.5 57.0Q359.0 63 371.0 63.0Q383.0 63 389.0 58.5Q395.0 54 401.0 49.0Q407.0 44 416.0 44Q426.0 44 437.0 50.5Q448.0 57 460.0 73L530.0 178L496.0 292Q485.0 333 471.0 342.5Q457.0 352 445.0 352.0Q433.0 352 416.0 342.0Q399.0 332 379.0 311Q378.0 309 376.0 309Q374.0 309 371.5 311.5Q369.0 314 369.0 316Q369.0 318 371.0 319Q406.0 357 432.0 376.0Q458.0 395 480.0 395Q499.0 395 515.5 381.0Q532.0 367 544.0 325L570.0 237L625.0 323Q644.0 354 656.5 369.0Q669.0 384 680.0 389.5Q691.0 395 705.0 395Q726.0 395 742.5 380.5Q759.0 366 756.0 346Q755.0 335 747.0 328.5Q739.0 322 728.0 322Q716.0 322 709.5 327.5Q703.0 333 697.5 337.5Q692.0 342 682.0 342Q673.0 342 661.5 335.0Q650.0 328 639.0 312L575.0 219L614.0 85Q625.0 49 638.0 41.0Q651.0 33 661.0 33Q675.0 33 691.0 43.5Q707.0 54 727.0 75Q729.0 77 731.0 77Q733.0 77 735.0 75Q739.0 70 736.0 67Q702.0 29 675.0 10.0Q648.0 -9 627.0 -9ZM707.0 -275Q706.0 -275 705.0 -275Q703.0 -274 702.0 -270Q701.0 -264 705.0 -263Q727.0 -259 738.0 -253.0Q749.0 -247 755.0 -231.5Q761.0 -216 766.0 -185L851.0 289Q829.0 274 806.0 256Q803.0 254 799.0 259Q796.0 262 797.0 264Q798.0 265 799.0 265Q826.0 289 854.0 310L868.0 386Q868.0 389 875.0 395.0Q882.0 401 892.0 410.5Q902.0 420 910.0 432.0Q918.0 444 921.0 459Q923.0 463 928.0 462Q931.0 461 932.0 460Q932.0 459 932.0 457L913.0 349Q918.0 352 924.0 356Q988.0 393 1049.0 393Q1105.0 393 1129.5 357.0Q1154.0 321 1144.0 253Q1137.0 202 1114.0 156.0Q1091.0 110 1058.5 74.5Q1026.0 39 987.0 19.0Q948.0 -1 909.0 -1Q872.0 -1 854.0 2Q852.0 2 851.0 2L819.0 -178Q812.0 -219 823.5 -231.0Q835.0 -243 877.0 -238Q878.0 -237 880.0 -238Q882.0 -238 883.0 -242Q883.0 -246 882.0 -247Q881.0 -249 879.0 -249ZM909.0 327 859.0 44Q866.0 40 875.0 37Q900.0 27 937.0 27Q982.0 27 1012.5 52.5Q1043.0 78 1062.0 121.5Q1081.0 165 1087.0 220Q1092.0 254 1088.0 285.5Q1084.0 317 1066.0 337.0Q1048.0 357 1007.0 357Q961.0 357 915.0 330Q912.0 328 909.0 327ZM1326.0 -12Q1273.0 -12 1242.5 16.0Q1212.0 44 1202.5 89.0Q1193.0 134 1203.0 185Q1209.0 222 1229.5 260.5Q1250.0 299 1281.0 330.0Q1312.0 361 1350.0 380.0Q1388.0 399 1431.0 399Q1468.0 399 1485.5 384.5Q1503.0 370 1499.0 345Q1494.0 321 1471.0 299.0Q1448.0 277 1412.0 259.5Q1376.0 242 1332.0 229Q1298.0 219 1263.0 214Q1253.0 160 1262.0 118Q1270.0 74 1296.0 48.0Q1322.0 22 1364.0 22Q1388.0 22 1414.0 29.0Q1440.0 36 1465.0 55Q1468.0 57 1471.5 53.0Q1475.0 49 1472.0 46Q1434.0 15 1398.0 1.5Q1362.0 -12 1326.0 -12ZM1266.0 228Q1327.0 239 1371.0 260Q1423.0 284 1432.0 324Q1439.0 351 1423.0 361.5Q1407.0 372 1387.0 372Q1353.0 372 1328.0 351.0Q1303.0 330 1287.0 295Q1273.0 264 1266.0 228ZM1625.0 7Q1622.0 -8 1593.0 -8Q1579.0 -8 1575.0 -6.5Q1571.0 -5 1571.0 -2Q1571.0 2 1576.5 26.5Q1582.0 51 1586.0 74L1619.0 259Q1627.0 299 1625.0 319.5Q1623.0 340 1616.0 348.0Q1609.0 356 1601.0 356Q1587.0 356 1571.0 344.0Q1555.0 332 1540.0 319Q1539.0 318 1539.0 318Q1537.0 317 1534.0 320Q1530.0 324 1532.0 327Q1562.0 361 1588.0 378.0Q1614.0 395 1640.0 395Q1658.0 395 1668.0 383.5Q1678.0 372 1679.0 343.0Q1680.0 314 1670.0 261L1650.0 147Q1660.0 179 1671.0 209Q1690.0 260 1712.0 302.0Q1734.0 344 1757.0 369.5Q1780.0 395 1803.0 395Q1817.0 395 1830.0 387.5Q1843.0 380 1851.5 368.0Q1860.0 356 1857.0 341Q1854.0 328 1845.5 321.0Q1837.0 314 1825.0 314Q1810.0 314 1802.5 322.0Q1795.0 330 1789.5 338.5Q1784.0 347 1774.0 347Q1760.0 347 1743.0 323.5Q1726.0 300 1708.0 261.5Q1690.0 223 1673.5 177.5Q1657.0 132 1644.0 87Q1632.0 45 1626.0 12ZM1963.0 -9Q1939.0 -9 1931.0 12.0Q1923.0 33 1934.0 89L1975.0 297Q1984.0 343 1968.0 353Q1964.0 356 1958.0 356Q1947.0 356 1928.5 344.0Q1910.0 332 1889.0 310Q1888.0 308 1886.0 308Q1884.0 308 1881.5 310.5Q1879.0 313 1879.0 315Q1879.0 317 1881.0 318Q1915.0 357 1943.0 376.0Q1971.0 395 1997.0 395Q2022.0 395 2029.0 373.5Q2036.0 352 2025.0 299L1985.0 89Q1979.0 59 1984.0 45.0Q1989.0 31 2001.0 31Q2012.0 31 2030.0 42.5Q2048.0 54 2069.0 75Q2073.0 79 2077.0 75.0Q2081.0 71 2077.0 67Q2044.0 30 2016.5 10.5Q1989.0 -9 1963.0 -9ZM2026.0 513Q2006.0 513 1994.5 524.0Q1983.0 535 1983.0 556Q1983.0 575 1994.5 586.0Q2006.0 597 2026.0 597Q2047.0 597 2057.5 586.0Q2068.0 575 2068.0 556Q2068.0 513 2026.0 513ZM2256.0 -12Q2203.0 -12 2172.5 16.0Q2142.0 44 2132.5 89.0Q2123.0 134 2133.0 185Q2139.0 222 2159.5 260.5Q2180.0 299 2211.0 330.0Q2242.0 361 2280.0 380.0Q2318.0 399 2361.0 399Q2398.0 399 2415.5 384.5Q2433.0 370 2429.0 345Q2424.0 321 2401.0 299.0Q2378.0 277 2342.0 259.5Q2306.0 242 2262.0 229Q2228.0 219 2193.0 214Q2183.0 160 2192.0 118Q2200.0 74 2226.0 48.0Q2252.0 22 2294.0 22Q2318.0 22 2344.0 29.0Q2370.0 36 2395.0 55Q2398.0 57 2401.5 53.0Q2405.0 49 2402.0 46Q2364.0 15 2328.0 1.5Q2292.0 -12 2256.0 -12ZM2196.0 228Q2257.0 239 2301.0 260Q2353.0 284 2362.0 324Q2369.0 351 2353.0 361.5Q2337.0 372 2317.0 372Q2283.0 372 2258.0 351.0Q2233.0 330 2217.0 295Q2203.0 264 2196.0 228ZM2781.0 -9Q2755.0 -9 2748.5 13.0Q2742.0 35 2752.0 89L2781.0 248Q2798.0 331 2769.0 353Q2759.0 360 2744.0 360Q2712.0 360 2677.0 319.0Q2642.0 278 2610.5 199.0Q2579.0 120 2558.0 7Q2556.0 -8 2526.0 -8Q2512.0 -8 2507.5 -6.5Q2503.0 -5 2503.0 -2Q2503.0 2 2508.5 25.0Q2514.0 48 2518.0 74L2559.0 297Q2567.0 344 2552.0 353Q2548.0 356 2542.0 356Q2531.0 356 2513.0 344.0Q2495.0 332 2473.0 310Q2472.0 308 2470.0 308Q2468.0 308 2465.5 310.5Q2463.0 313 2463.0 315Q2463.0 317 2465.0 318Q2499.0 357 2527.5 376.0Q2556.0 395 2582.0 395Q2606.0 395 2612.5 373.5Q2619.0 352 2610.0 299L2588.0 175Q2595.0 194 2602.0 213Q2637.0 301 2682.5 350.0Q2728.0 399 2777.0 399Q2820.0 399 2834.5 368.0Q2849.0 337 2835.0 267L2802.0 89Q2797.0 59 2802.0 45.0Q2807.0 31 2819.0 31Q2830.0 31 2847.0 43.5Q2864.0 56 2885.0 77Q2886.0 79 2888.0 79Q2890.0 79 2893.0 77Q2895.0 75 2895.0 73Q2895.0 71 2893.0 69Q2861.0 32 2834.0 11.5Q2807.0 -9 2781.0 -9ZM3066.0 -13Q3023.0 -13 2995.5 6.5Q2968.0 26 2954.0 57.5Q2940.0 89 2938.0 127.0Q2936.0 165 2944.0 202Q2957.0 265 2991.5 308.5Q3026.0 352 3070.5 375.5Q3115.0 399 3158.0 399Q3182.0 399 3202.5 391.5Q3223.0 384 3234.5 371.0Q3246.0 358 3244.0 340Q3243.0 327 3235.0 317.5Q3227.0 308 3211.0 308Q3197.0 308 3188.5 317.0Q3180.0 326 3175.0 340Q3172.0 352 3160.0 364.5Q3148.0 377 3123.0 377Q3090.0 377 3066.0 357.5Q3042.0 338 3027.5 305.5Q3013.0 273 3005.0 233Q2995.0 178 3001.5 129.5Q3008.0 81 3034.0 51.5Q3060.0 22 3108.0 22Q3141.0 22 3167.0 36.0Q3193.0 50 3214.0 67Q3217.0 69 3221.0 65.0Q3225.0 61 3222.0 58Q3181.0 21 3142.0 4.0Q3103.0 -13 3066.0 -13ZM3409.0 -12Q3356.0 -12 3325.5 16.0Q3295.0 44 3285.5 89.0Q3276.0 134 3286.0 185Q3292.0 222 3312.5 260.5Q3333.0 299 3364.0 330.0Q3395.0 361 3433.0 380.0Q3471.0 399 3514.0 399Q3551.0 399 3568.5 384.5Q3586.0 370 3582.0 345Q3577.0 321 3554.0 299.0Q3531.0 277 3495.0 259.5Q3459.0 242 3415.0 229Q3381.0 219 3346.0 214Q3336.0 160 3345.0 118Q3353.0 74 3379.0 48.0Q3405.0 22 3447.0 22Q3471.0 22 3497.0 29.0Q3523.0 36 3548.0 55Q3551.0 57 3554.5 53.0Q3558.0 49 3555.0 46Q3517.0 15 3481.0 1.5Q3445.0 -12 3409.0 -12ZM3349.0 228Q3410.0 239 3454.0 260Q3506.0 284 3515.0 324Q3522.0 351 3506.0 361.5Q3490.0 372 3470.0 372Q3436.0 372 3411.0 351.0Q3386.0 330 3370.0 295Q3356.0 264 3349.0 228ZM3698.0 -11Q3660.0 -11 3632.0 7.0Q3604.0 25 3608.0 51Q3610.0 65 3619.0 72.0Q3628.0 79 3638.0 79Q3651.0 79 3657.5 68.5Q3664.0 58 3671.0 45.0Q3678.0 32 3691.0 21.5Q3704.0 11 3728.0 11Q3755.0 11 3771.5 26.0Q3788.0 41 3792.0 72Q3796.0 103 3783.0 125.5Q3770.0 148 3747.5 166.0Q3725.0 184 3703.5 202.5Q3682.0 221 3669.5 244.0Q3657.0 267 3663.0 298Q3669.0 329 3689.5 351.0Q3710.0 373 3738.5 384.5Q3767.0 396 3796.0 396Q3832.0 396 3856.0 381.5Q3880.0 367 3877.0 346Q3874.0 332 3864.5 325.5Q3855.0 319 3846.0 319Q3832.0 319 3824.0 327.0Q3816.0 335 3808.5 346.0Q3801.0 357 3790.5 365.5Q3780.0 374 3760.0 374Q3741.0 374 3726.0 364.0Q3711.0 354 3708.0 334Q3703.0 304 3716.5 282.0Q3730.0 260 3752.0 241.0Q3774.0 222 3796.0 202.5Q3818.0 183 3830.5 159.0Q3843.0 135 3838.0 103Q3833.0 74 3813.5 47.5Q3794.0 21 3764.0 5.0Q3734.0 -11 3698.0 -11Z" fill="#FAF8F3"/>
  <rect x="798.72" y="120" width="2.5" height="360" fill="#FAF8F3" opacity="0.8"/>
  <path transform="translate(858.720 314.960) scale(0.021484 -0.021484)" d="M180.0 0V1490H690.0Q864.0 1490 976.5 1426.5Q1089.0 1363 1143.5 1256.0Q1198.0 1149 1198.0 1016Q1198.0 883 1143.5 775.0Q1089.0 667 977.0 603.0Q865.0 539 691.0 539H330.0V706H682.0Q800.0 706 872.0 746.5Q944.0 787 976.5 857.5Q1009.0 928 1009.0 1016Q1009.0 1104 976.5 1173.5Q944.0 1243 871.5 1283.0Q799.0 1323 680.0 1323H370.0V0ZM2952.16 -20Q2761.16 -20 2611.66 72.5Q2462.16 165 2376.16 336.5Q2290.16 508 2290.16 744Q2290.16 981 2376.16 1152.5Q2462.16 1324 2611.66 1417.0Q2761.16 1510 2952.16 1510Q3143.16 1510 3292.16 1417.0Q3441.16 1324 3526.66 1152.5Q3612.16 981 3612.16 744Q3612.16 508 3526.66 336.5Q3441.16 165 3292.16 72.5Q3143.16 -20 2952.16 -20ZM2952.16 156Q3085.16 156 3192.66 223.5Q3300.16 291 3363.66 422.5Q3427.16 554 3427.16 744Q3427.16 936 3363.66 1067.5Q3300.16 1199 3192.66 1266.5Q3085.16 1334 2952.16 1334Q2818.16 1334 2710.16 1266.0Q2602.16 1198 2538.66 1066.5Q2475.16 935 2475.16 744Q2475.16 554 2538.66 423.0Q2602.16 292 2710.16 224.0Q2818.16 156 2952.16 156ZM4774.32 0V1490H5284.32Q5458.32 1490 5570.82 1430.5Q5683.32 1371 5737.82 1267.0Q5792.32 1163 5792.32 1030Q5792.32 897 5737.82 795.0Q5683.32 693 5571.32 635.5Q5459.32 578 5285.32 578H4880.32V747H5276.32Q5394.32 747 5465.82 781.5Q5537.32 816 5570.32 879.5Q5603.32 943 5603.32 1030Q5603.32 1119 5570.32 1184.5Q5537.32 1250 5465.32 1286.5Q5393.32 1323 5274.32 1323H4964.32V0ZM5630.32 0 5270.32 671H5484.32L5850.32 0ZM6870.48 1322V1490H7996.48V1322H7529.48V0H7339.48V1322ZM9717.64 -24Q9541.64 -24 9410.14 45.0Q9278.64 114 9206.64 234.0Q9134.64 354 9134.64 507V1490H9324.64V522Q9324.64 415 9372.14 331.5Q9419.64 248 9507.64 200.0Q9595.64 152 9717.64 152Q9839.64 152 9927.14 200.0Q10014.64 248 10061.64 331.5Q10108.64 415 10108.64 522V1490H10298.64V507Q10298.64 354 10226.64 234.0Q10154.64 114 10024.14 45.0Q9893.64 -24 9717.64 -24ZM12127.8 -20Q11928.8 -20 11778.8 73.0Q11628.8 166 11544.8 337.5Q11460.8 509 11460.8 744Q11460.8 981 11544.8 1152.5Q11628.8 1324 11776.8 1417.0Q11924.8 1510 12115.8 1510Q12233.8 1510 12336.3 1475.0Q12438.8 1440 12519.8 1375.0Q12600.8 1310 12654.3 1220.5Q12707.8 1131 12727.8 1023H12531.8Q12508.8 1095 12470.8 1152.0Q12432.8 1209 12380.3 1250.0Q12327.8 1291 12261.8 1312.5Q12195.8 1334 12116.8 1334Q11985.8 1334 11878.8 1266.5Q11771.8 1199 11708.8 1067.5Q11645.8 936 11645.8 744Q11645.8 554 11709.3 423.0Q11772.8 292 11881.8 224.0Q11990.8 156 12127.8 156Q12253.8 156 12349.8 209.5Q12445.8 263 12499.3 361.5Q12552.8 460 12552.8 594L12609.8 583H12166.8V749H12738.8V586Q12738.8 401 12659.8 265.0Q12580.8 129 12443.3 54.5Q12305.8 -20 12127.8 -20ZM13778.96 0 14319.96 1490H14539.96L15087.96 0H14887.96L14571.96 884Q14542.96 966 14504.46 1088.5Q14465.96 1211 14410.96 1401H14446.96Q14392.96 1209 14353.46 1084.5Q14313.96 960 14287.96 884L13980.96 0ZM14050.96 416V582H14815.96V416ZM16180.119999999999 0V1490H16370.119999999999V168H17060.12V0Z" fill="#FAF8F3"/>
</svg>
