<svg viewBox="0 0 2500 1163.3" xmlns="http://www.w3.org/2000/svg" width="2500" height="1163"><path d="M0 694.5h468.8v468.8H0zm507.8 0h468.8v468.8H507.8zm507.8 0h468.8v468.8h-468.8zm507.8 0h468.8v468.8h-468.8zm507.8 0H2500v468.8h-468.8z" fill="#00b67a"/><path d="M234.4 1010.5l71.3-18.1 29.8 91.8zm164-118.7H272.9l-38.6-118.2-38.6 118.2H70.2L171.8 965l-38.6 118.2 101.6-73.2 62.5-44.9 101.1-73.2zm343.8 118.7l71.3-18.1 29.8 91.8zm164.1-118.7H780.8l-38.6-118.2-38.6 118.2H578.1L679.7 965l-38.6 118.2 101.6-73.2 62.5-44.9 101.1-73.2zm343.7 118.7l71.3-18.1 29.8 91.8zm164.1-118.7h-125.5L1250 773.6l-38.6 118.2h-125.5l101.6 73.2-38.6 118.2 101.6-73.2 62.5-44.9 101.1-73.2zm343.7 118.7l71.3-18.1 29.8 91.8zm164.1-118.7h-125.5l-38.6-118.2-38.6 118.2h-125.5l101.6 73.2-38.6 118.2 101.6-73.2 62.5-44.9 101.1-73.2zm343.7 118.7l71.3-18.1 29.8 91.8zm164.1-118.7h-125.5l-38.6-118.2-38.6 118.2h-125.5l101.6 73.2-38.6 118.2 101.6-73.2 62.5-44.9 101.1-73.2z" fill="#fff"/><path d="M657.1 217.5H910v47.1h-99.6V530h-54.6V264.6h-99.2l.4-47.1zm242.1 86.3h46.7v43.7h.8c1.7-6.2 4.6-12.1 8.8-17.9s9.2-11.3 15.4-15.8c5.8-5 12.5-8.8 20-11.7 7.1-2.9 14.6-4.6 22.1-4.6s10 .4 12.1.4c2.1.4 4.6.8 6.7.8v47.9c-3.3-.8-7.1-1.2-10.8-1.7-3.7-.4-7.1-.8-10.8-.8-8.3 0-16.2 1.7-23.8 5s-13.8 8.3-19.6 14.6c-5.4 6.7-10 14.6-13.3 24.2s-5 20.8-5 33.3v107.5h-50l.8-225zM1260.8 530h-49.2v-31.7h-.8c-6.2 11.7-15.4 20.4-27.5 27.5s-24.6 10.4-37.1 10.4c-29.6 0-51.2-7.1-64.6-22.1-13.3-14.6-20-37.1-20-66.7V303.7h50v138.7c0 20 3.7 34.2 11.7 42.1 7.5 8.3 18.3 12.5 32.1 12.5s19.2-1.7 26.2-5c7.1-3.3 12.9-7.5 17.1-12.9 4.6-5.4 7.5-12.1 9.6-19.6s2.9-15.8 2.9-24.6V303.7h50v226.2h-.4zm85-72.5c1.7 14.6 7.1 24.6 16.7 30.8 9.6 5.8 21.3 8.8 34.6 8.8s10-.4 15.8-1.2 11.7-2.1 16.7-4.2c5.4-2.1 9.6-5 12.9-9.2s5-9.2 4.6-15.4-2.5-11.7-7.1-15.8-10-7.1-16.7-10c-6.7-2.5-14.6-4.6-23.3-6.2-8.8-1.7-17.5-3.7-26.7-5.8s-18.3-4.6-27.1-7.5-16.2-6.7-23.3-12.1c-6.7-5-12.5-11.3-16.2-19.2-4.2-7.9-6.2-17.1-6.2-28.7s2.9-22.5 9.2-30.8c5.8-8.3 13.7-15 22.9-20s19.6-8.8 30.8-10.8c11.2-2.1 22.1-2.9 32.1-2.9s22.9 1.2 33.3 3.7 20.4 6.2 28.7 12.1c8.8 5.4 15.8 12.9 21.3 21.7 5.8 8.8 9.2 19.6 10.8 32.1h-52.1c-2.5-12.1-7.9-20-16.2-24.2-8.8-4.2-18.3-6.2-29.6-6.2s-7.9.4-12.5.8c-5 .8-9.2 1.7-13.7 3.3-4.2 1.7-7.9 4.2-10.8 7.1s-4.6 7.1-4.6 12.1 2.1 10.8 6.2 14.6c4.2 3.7 9.6 6.7 16.7 9.6 6.7 2.5 14.6 4.6 23.3 6.2s17.9 3.7 27.1 5.8 17.9 4.6 26.7 7.5 16.7 6.7 23.3 12.1c6.7 5 12.5 11.3 16.7 18.7 4.2 7.5 6.2 17.1 6.2 27.9s-2.9 24.6-9.2 34.2c-6.2 9.2-14.2 17.1-23.8 22.9s-20.8 10-32.5 12.9c-12.1 2.5-23.8 4.2-35.4 4.2s-27.5-1.7-39.6-5-22.9-8.3-31.7-14.6c-8.8-6.7-15.8-14.6-20.8-24.6-5-9.6-7.9-21.3-8.3-35h50.4v.4h.4zm164.6-153.7h37.9v-68.3h50v67.9h45v37.1h-45v120.8c0 5.4.4 9.6.8 13.7.4 3.7 1.7 7.1 2.9 9.6 1.7 2.5 4.2 4.6 7.1 5.8 3.3 1.2 7.5 2.1 13.3 2.1s7.1 0 10.4-.4 7.1-.8 10.4-1.7v38.7c-5.4.8-10.8 1.2-16.2 1.7-5.4.8-10.4.8-16.2.8-13.3 0-23.8-1.2-31.7-3.7s-14.2-6.2-18.7-10.8c-4.6-5-7.5-10.8-9.2-17.9s-2.5-15.8-2.9-25V340.9h-37.9V303zm167.9 0h47.1v30.8h.8c7.1-13.3 16.7-22.5 29.2-28.3s25.8-8.8 40.8-8.8 33.3 2.9 46.7 9.6c13.3 6.2 24.2 14.6 32.9 25.8 8.8 10.8 15.4 23.8 19.6 38.3s6.7 30.4 6.7 46.7-2.1 30-5.8 44.2c-4.2 14.2-10 27.1-17.9 37.9s-17.9 19.6-30.4 26.2c-12.5 6.7-26.7 10-43.3 10s-14.6-.8-21.7-2.1c-7.1-1.2-14.2-3.3-20.8-6.2-6.7-2.9-12.9-6.7-18.3-11.3-5.8-4.6-10.4-10-14.2-15.8h-.8v112.9h-50v-310h-.4zm174.6 113.3c0-10-1.2-20-4.2-29.6-2.5-9.6-6.7-17.9-12.1-25.4s-12.1-13.3-19.6-17.9c-7.9-4.6-17.1-6.7-27.1-6.7-20.8 0-36.7 7.1-47.5 21.7-10.4 14.6-15.8 34.2-15.8 58.3s1.2 22.1 4.2 31.7 6.7 17.9 12.5 25c5.4 7.1 12.1 12.5 20 16.7s16.7 6.2 27.1 6.2 20.8-2.5 28.7-7.1 14.2-10.8 19.6-17.9c5-7.5 8.8-15.8 10.8-25.4 2.1-10 3.3-19.6 3.3-29.6zm87.9-199.6h50v47.1h-50zm0 86.3h50V530h-50zm94.6-86.3h50V530h-50zm202.5 318.8c-17.9 0-34.2-2.9-48.3-9.2-14.2-6.2-25.8-14.2-35.8-24.6-9.6-10.4-17.1-23.3-22.1-37.9s-7.9-30.8-7.9-47.9 2.5-32.9 7.9-47.5c5-14.6 12.5-27.1 22.1-37.9 9.6-10.4 21.7-18.7 35.8-24.6 14.2-5.8 30.4-9.2 48.3-9.2s34.2 2.9 48.3 9.2c14.2 5.8 25.8 14.2 35.8 24.6 9.6 10.4 17.1 23.3 22.1 37.9s7.9 30.4 7.9 47.5-2.5 33.3-7.9 47.9-12.5 27.1-22.1 37.9c-9.6 10.4-21.7 18.7-35.8 24.6-14.2 5.8-30 9.2-48.3 9.2zm0-39.6c10.8 0 20.8-2.5 28.8-7.1 8.3-4.6 14.6-10.8 20-18.3s9.2-16.2 11.7-25.4c2.5-9.6 3.8-19.2 3.8-29.2s-1.2-19.2-3.8-28.7c-2.5-9.6-6.2-17.9-11.7-25.4s-12.1-13.3-20-17.9c-8.3-4.6-17.9-7.1-28.8-7.1s-20.8 2.5-28.8 7.1c-8.3 4.6-14.6 10.8-20 17.9-5.4 7.5-9.2 15.8-11.7 25.4s-3.8 19.2-3.8 28.7 1.2 19.6 3.8 29.2c2.5 9.6 6.2 17.9 11.7 25.4 5.4 7.5 12.1 13.7 20 18.3 8.3 5 17.9 7.1 28.8 7.1zm129.2-192.9h37.9v-68.3h50v67.9h45v37.1h-45v120.8c0 5.4.4 9.6.8 13.7.4 3.7 1.7 7.1 2.9 9.6 1.7 2.5 4.2 4.6 7.1 5.8 3.3 1.2 7.5 2.1 13.3 2.1s7.1 0 10.4-.4 7.1-.8 10.4-1.7v38.7c-5.4.8-10.8 1.2-16.3 1.7-5.4.8-10.4.8-16.3.8-13.3 0-23.8-1.2-31.7-3.7s-14.2-6.2-18.7-10.8c-4.6-5-7.5-10.8-9.2-17.9s-2.5-15.8-2.9-25V340.9h-37.9V303v.8z"/><path d="M598.8 217.5H370L299.6 0l-70.8 217.5L0 217.1l185 134.6-70.8 217.5 185-134.6 185 134.6-70.4-217.5z" fill="#00b67a"/><path d="M429.6 400.8l-15.8-49.2-114.2 82.9 130-33.8z" fill="#005128"/></svg>